#define logo_width 90
#define logo_height 38
static unsigned char logo_bits[] U8G_PROGMEM = {
   0x00, 0x00, 0x00, 0x00, 0x02, 0xc0, 0xf1, 0x81, 0x01, 0x87, 0x0f, 0x00,
   0x00, 0x00, 0x00, 0x80, 0x03, 0xe0, 0xf3, 0x83, 0xc1, 0xcf, 0x0f, 0x00,
   0x00, 0x00, 0x00, 0xe0, 0x03, 0x60, 0x32, 0xc6, 0xc3, 0x8d, 0x01, 0x00,
   0x00, 0x00, 0x00, 0xf0, 0x00, 0xe0, 0x30, 0xc6, 0xe3, 0x80, 0x03, 0x00,
   0x00, 0x00, 0x00, 0x78, 0x02, 0xe0, 0x71, 0x67, 0x63, 0xc0, 0x0f, 0x00,
   0x00, 0x80, 0x02, 0x7c, 0x01, 0x00, 0xf3, 0x63, 0xe6, 0x80, 0x03, 0x00,
   0x00, 0xfc, 0x1f, 0x3e, 0x00, 0x20, 0x73, 0xf1, 0xc7, 0x84, 0x01, 0x00,
   0x00, 0xfe, 0x7f, 0x9e, 0x00, 0xe0, 0x33, 0xf0, 0xcf, 0x9f, 0x0f, 0x00,
   0x80, 0x7f, 0x3d, 0x4f, 0x00, 0xc0, 0x31, 0x38, 0x0c, 0xcf, 0x0f, 0x00,
   0xe0, 0x07, 0x80, 0x27, 0x00, 0x00, 0x00, 0x00, 0x00, 0x00, 0x00, 0x00,
   0xe0, 0x01, 0xc0, 0x13, 0x00, 0x00, 0x00, 0x00, 0x00, 0x00, 0x00, 0x00,
   0xf0, 0x00, 0xe0, 0x09, 0x00, 0x00, 0x00, 0x00, 0x00, 0x00, 0x00, 0x00,
   0x78, 0x00, 0xe0, 0x04, 0x00, 0x00, 0x00, 0x00, 0x00, 0x00, 0x00, 0x00,
   0x3c, 0xc0, 0xff, 0x32, 0x00, 0x00, 0x00, 0x00, 0x00, 0x00, 0x00, 0x00,
   0x1c, 0xe0, 0x7f, 0x39, 0x00, 0x02, 0x04, 0x51, 0x00, 0x82, 0xa0, 0x02,
   0x1e, 0xf0, 0x3f, 0x70, 0x00, 0x8f, 0x9f, 0xf9, 0x0d, 0xe3, 0xe3, 0x03,
   0x0e, 0xc0, 0xdf, 0x70, 0x80, 0xcd, 0x9f, 0x39, 0x18, 0xf3, 0x73, 0x00,
   0x0e, 0x80, 0xcf, 0xf0, 0x80, 0xc1, 0x81, 0x39, 0x38, 0x3b, 0x60, 0x00,
   0x07, 0x00, 0xe7, 0xe0, 0x80, 0xc7, 0x80, 0xf9, 0xfc, 0x1b, 0xf0, 0x03,
   0x07, 0x00, 0xfa, 0xe0, 0x00, 0xcf, 0x80, 0xf9, 0xf8, 0x1b, 0xe0, 0x03,
   0x07, 0x40, 0xf8, 0xe0, 0x00, 0xcc, 0x81, 0x19, 0xcc, 0x3b, 0x70, 0x00,
   0x07, 0xf0, 0xf0, 0xe0, 0x80, 0x8d, 0x9f, 0x39, 0x98, 0xf3, 0x63, 0x00,
   0x01, 0xf8, 0xe1, 0xe0, 0x80, 0x8f, 0x9f, 0xfb, 0x1d, 0xe3, 0xf3, 0x03,
   0xc0, 0xfe, 0x61, 0xe0, 0x00, 0x02, 0x84, 0xa0, 0x08, 0x42, 0x41, 0x01,
   0xff, 0xff, 0x01, 0xe0, 0x00, 0x00, 0x00, 0x00, 0x00, 0x00, 0x00, 0x00,
   0xfe, 0xff, 0x00, 0xe0, 0x00, 0x00, 0x00, 0x00, 0x00, 0x00, 0x00, 0x00,
   0xfe, 0x7f, 0x00, 0x70, 0x00, 0x00, 0x00, 0x00, 0x00, 0x00, 0x00, 0x00,
   0xfe, 0x7f, 0x00, 0x70, 0x00, 0x00, 0x00, 0x00, 0x00, 0x00, 0x00, 0x00,
   0xfc, 0x7f, 0x00, 0x78, 0x00, 0x00, 0x00, 0x00, 0x00, 0x00, 0x00, 0x00,
   0xfc, 0x7f, 0x00, 0x3c, 0x00, 0x00, 0x00, 0x86, 0xc3, 0x01, 0x00, 0x00,
   0xf8, 0x7f, 0x00, 0x1c, 0x00, 0x00, 0x00, 0xc7, 0xc7, 0x00, 0x00, 0x00,
   0xf0, 0x7f, 0x00, 0x1e, 0x00, 0x00, 0x00, 0x46, 0xc6, 0x01, 0x00, 0x00,
   0xf0, 0x7f, 0x80, 0x0f, 0x00, 0x00, 0x00, 0x63, 0x84, 0x01, 0x00, 0x00,
   0xe0, 0x7f, 0xc0, 0x07, 0x00, 0x00, 0x00, 0x67, 0x86, 0x01, 0x00, 0x00,
   0x80, 0x7f, 0xf4, 0x03, 0x00, 0x00, 0x00, 0x46, 0xc4, 0x01, 0x00, 0x00,
   0x00, 0x3f, 0xff, 0x00, 0x00, 0x00, 0x00, 0xe6, 0x86, 0x01, 0x00, 0x00,
   0x00, 0xbc, 0x3f, 0x00, 0x00, 0x00, 0x00, 0xc7, 0xc7, 0x01, 0x00, 0x00,
   0x00, 0x80, 0x07, 0x00, 0x00, 0x00, 0x00, 0x86, 0x83, 0x01, 0x00, 0x00 };
